<svg height="512" viewBox="0 0 64 64" width="512" xmlns="http://www.w3.org/2000/svg"><g id="outline"><path d="m22.085 54h-3.085v8h26v-8h-3.085c-.4-2.52-2.264-4.266-4.365-5.631a7.725 7.725 0 0 0 3.45-6.369 7.563 7.563 0 0 0 -3.085-6.077 7.566 7.566 0 0 0 4.085-6.933c0-3.062-2.389-5.42-4.851-7.217 2.151-1.526 3.851-3.34 3.851-5.773 0-2.325-1.357-3.926-3.154-5.195a9.52 9.52 0 0 0 4.154-7.805v-1h-6v1c0 1.963-1.526 3.247-4 4.6-2.233-1.213-4-2.544-4-4.6v-1h-6v1a9.55 9.55 0 0 0 4.154 7.8c-1.654 1.155-3.154 2.762-3.154 5.2 0 2.5 1.789 4.322 3.842 5.777-2.637 1.923-4.842 4.242-4.842 7.216a7.531 7.531 0 0 0 4.086 6.916 7.6 7.6 0 0 0 -3.086 6.091 7.78 7.78 0 0 0 3.441 6.373c-2.166 1.408-3.969 3.14-4.356 5.627zm18.915 2h2v4h-22v-4h2v2h2v-2h2v2h2v-2h2v2h2v-2h2v2h2v-2h2v2h2zm-12.668-2a9.567 9.567 0 0 1 3.668-2.524c1.748.866 3.1 1.63 3.685 2.524zm11.555 0h-2.02c-.446-1.613-1.957-2.712-3.634-3.626.491-.249.984-.512 1.47-.792 2.512 1.505 3.816 2.858 4.184 4.418zm.113-25.01c0 3.137-1.832 4.6-3.926 5.647-.6-.363-1.222-.7-1.838-1.012 2-1.092 3.764-2.45 3.764-4.635s-1.84-3.816-4.041-5.227c.462-.266.927-.538 1.389-.817 2.268 1.565 4.652 3.613 4.652 6.044zm-8 3.533c-2.218-1.1-4-2.113-4-3.53 0-1.459 1.848-2.8 4-4.089 2.02 1.209 4 2.6 4 4.086 0 1.382-1.641 2.363-4 3.533zm5.912-28.523h2.025c-.288 2.2-1.571 4.028-3.937 5.666-.625-.343-1.264-.667-1.891-.981 1.879-1.175 3.426-2.612 3.803-4.685zm-12.912 12c0-1.5.9-2.713 2.949-3.991.6.359 1.194.686 1.782.986-1.615.853-2.731 1.705-2.731 3.005 0 1.322 1.237 2.409 3.1 3.633-.489.3-.987.608-1.483.928-2.517-1.67-3.617-3.055-3.617-4.561zm7-1.9c1.218.584 3 1.476 3 1.9 0 .51-1.537 1.556-3 2.473-1.147-.716-3-1.933-3-2.472 0-.426 1.746-1.301 3-1.901zm-7 27.9c0-2.025.967-3.606 3.086-5.077.521.229 1.041.44 1.548.642a5.076 5.076 0 0 0 -2.634 4.435c0 1.862 1.318 3.214 3 4.347l-.158.085c-.5.265-1.008.537-1.513.817-2.285-1.522-3.329-3.157-3.329-5.249zm6.994-3.451c1.899.882 3.006 1.787 3.006 3.451 0 1.213-1.29 2.241-3 3.246-2.11-1.259-3-2.219-3-3.246 0-1.474.833-2.436 2.994-3.451zm-1.21 9.651c3.196-1.7 6.216-3.31 6.216-6.2 0-3.666-3.224-4.942-6.341-6.176-3.425-1.36-6.659-2.64-6.659-6.831 0-3.3 4.356-5.957 7.857-8.088 2.986-1.817 5.143-3.13 5.143-4.905 0-1.728-1.994-2.679-4.52-3.883-3.52-1.679-7.842-3.738-8.417-8.117h2.026c.584 3.2 3.956 4.89 6.964 6.394 3.058 1.529 5.947 2.973 5.947 5.606 0 2.56-3.277 4.443-6.446 6.266-3.37 1.934-6.554 3.766-6.554 6.727 0 2.837 2.881 4.239 5.932 5.725 3.474 1.691 7.068 3.439 7.068 7.282s-3.6 5.595-7.074 7.287c-2.666 1.3-5.2 2.532-5.8 4.717h-2.007c.634-2.597 3.694-4.226 6.665-5.804z"/><path d="m15 28h5v2h-5z"/><path d="m17 22h1.999v5h-1.999z" transform="matrix(.6 -.8 .8 .6 -12.4 24.2)"/><path d="m15.5 32.5h5v1.999h-5z" transform="matrix(.8 -.6 .6 .8 -16.5 17.5)"/><path d="m44 28h5v2h-5z"/><path d="m43.5 23.5h5v1.999h-5z" transform="matrix(.8 -.6 .6 .8 -5.502 32.49)"/><path d="m45 31h1.999v5h-1.999z" transform="matrix(.6 -.8 .8 .6 -8.397 50.211)"/></g></svg>